<svg xmlns="http://www.w3.org/2000/svg" width="1080" height="1080" viewBox="0 0 1080 1080" version="1.1">
	<path d="M 775 120.894 C 773.625 121.348, 636.985 189.484, 471.355 272.307 C 213.355 401.321, 169.873 423.368, 167.855 426.198 L 165.500 429.500 165.500 502.500 L 165.500 575.500 167.677 578.500 C 169.042 580.381, 186.943 592.176, 215.677 610.126 C 240.880 625.870, 292.775 658.324, 331 682.245 C 369.225 706.167, 450.900 757.232, 512.500 795.724 C 621.314 863.718, 722.726 927.155, 755.677 947.839 C 773.228 958.856, 775.539 960, 780.258 960 C 782.359 960, 803.775 949.829, 845.443 929.044 C 879.574 912.018, 908.464 897.280, 909.642 896.294 C 910.820 895.307, 912.508 893.060, 913.392 891.300 C 914.860 888.378, 915 858.471, 915 548.070 C 915 236.152, 914.865 207.704, 913.371 203.968 C 912.151 200.919, 910.329 198.991, 906.121 196.294 C 903.029 194.313, 874.625 176.500, 843 156.709 C 782.948 119.129, 781.945 118.601, 775 120.894 M 734.506 174.627 C 710.860 186.467, 691.389 196.278, 691.237 196.430 C 690.723 196.943, 780.330 252.502, 781.231 252.229 C 782.274 251.913, 868.297 209.036, 868.704 208.629 C 869.251 208.082, 780.248 153.001, 778.894 153.050 C 778.127 153.077, 758.153 162.787, 734.506 174.627 M 614.500 234.639 C 590.850 246.490, 571.379 256.303, 571.231 256.446 C 570.720 256.938, 660.338 312.500, 661.214 312.235 C 661.697 312.089, 681.692 302.195, 705.647 290.250 C 735.046 275.589, 748.763 268.259, 747.851 267.698 C 747.108 267.240, 732.710 258.233, 715.856 247.683 C 665.006 215.851, 660.313 212.998, 658.879 213.046 C 658.121 213.072, 638.150 222.789, 614.500 234.639 M 838.750 257.245 L 795 279.210 795 329.605 C 795 357.322, 795.301 380, 795.669 380 C 796.038 380, 816.288 370.052, 840.669 357.893 L 885 335.786 885 285.393 C 885 245.671, 884.735 235.030, 883.750 235.140 C 883.063 235.217, 862.813 245.165, 838.750 257.245 M 494.500 294.639 C 470.850 306.490, 451.379 316.303, 451.231 316.446 C 450.773 316.887, 540.290 372.514, 541.080 372.279 C 541.490 372.158, 561.489 362.267, 585.522 350.300 C 615.219 335.513, 628.785 328.273, 627.860 327.704 C 627.112 327.243, 612.710 318.233, 595.856 307.683 C 545.006 275.851, 540.313 272.998, 538.879 273.046 C 538.121 273.072, 518.150 282.789, 494.500 294.639 M 718.750 317.245 L 675 339.210 675 389.605 C 675 417.322, 675.301 440, 675.669 440 C 676.038 440, 696.288 430.052, 720.669 417.893 L 765 395.786 765 345.393 C 765 305.671, 764.735 295.030, 763.750 295.140 C 763.063 295.217, 742.813 305.165, 718.750 317.245 M 374.500 354.639 C 350.850 366.490, 331.379 376.303, 331.231 376.446 C 330.720 376.938, 420.338 432.500, 421.214 432.235 C 421.697 432.089, 441.692 422.195, 465.647 410.250 C 495.046 395.589, 508.763 388.259, 507.851 387.698 C 507.108 387.240, 492.710 378.233, 475.856 367.683 C 425.006 335.851, 420.313 332.998, 418.879 333.046 C 418.121 333.072, 398.150 342.789, 374.500 354.639 M 598.750 377.245 L 555 399.210 555 449.605 C 555 477.322, 555.301 500, 555.669 500 C 556.038 500, 576.288 490.052, 600.669 477.893 L 645 455.786 645 405.393 C 645 365.671, 644.735 355.030, 643.750 355.140 C 643.063 355.217, 622.813 365.165, 598.750 377.245 M 838.750 392.245 L 795 414.210 795 464.605 C 795 492.322, 795.301 515, 795.669 515 C 796.038 515, 816.288 505.052, 840.669 492.893 L 885 470.786 885 420.393 C 885 380.671, 884.735 370.030, 883.750 370.140 C 883.063 370.217, 862.813 380.165, 838.750 392.245 M 254.500 414.639 C 230.850 426.490, 211.379 436.303, 211.231 436.446 C 210.773 436.887, 300.290 492.514, 301.080 492.279 C 301.490 492.158, 321.489 482.267, 345.522 470.300 C 375.219 455.513, 388.785 448.273, 387.860 447.704 C 387.112 447.243, 372.710 438.233, 355.856 427.683 C 305.006 395.851, 300.313 392.998, 298.879 393.046 C 298.121 393.072, 278.150 402.789, 254.500 414.639 M 487.131 433.083 C 467.128 443.027, 451.153 451.526, 451.631 451.970 C 452.109 452.414, 465.100 460.626, 480.500 470.219 C 495.900 479.812, 512.212 489.990, 516.750 492.837 L 525 498.014 525 456.507 C 525 433.678, 524.663 415.001, 524.250 415.002 C 523.837 415.003, 507.134 423.140, 487.131 433.083 M 727.131 448.083 C 707.128 458.027, 691.153 466.526, 691.631 466.970 C 692.109 467.414, 705.100 475.626, 720.500 485.219 C 735.900 494.812, 752.212 504.990, 756.750 507.837 L 765 513.014 765 471.507 C 765 448.678, 764.663 430.001, 764.250 430.002 C 763.837 430.003, 747.134 438.140, 727.131 448.083 M 195 511.958 L 195 561.796 225.156 580.648 C 241.742 591.017, 261.992 603.635, 270.156 608.689 L 285 617.879 285 568.048 L 285 518.216 254.822 499.358 C 238.224 488.986, 217.974 476.365, 209.822 471.311 L 195 462.121 195 511.958 M 374.500 489.639 C 350.850 501.490, 331.379 511.303, 331.231 511.446 C 330.720 511.938, 420.338 567.500, 421.214 567.235 C 421.697 567.089, 441.692 557.195, 465.647 545.250 C 495.046 530.589, 508.763 523.259, 507.851 522.698 C 507.108 522.240, 492.710 513.233, 475.856 502.683 C 425.006 470.851, 420.313 467.998, 418.879 468.046 C 418.121 468.072, 398.150 477.789, 374.500 489.639 M 607.131 508.083 C 587.128 518.027, 571.153 526.526, 571.631 526.970 C 572.109 527.414, 585.100 535.626, 600.500 545.219 C 615.900 554.812, 632.212 564.990, 636.750 567.837 L 645 573.014 645 531.507 C 645 508.678, 644.663 490.001, 644.250 490.002 C 643.837 490.003, 627.134 498.140, 607.131 508.083 M 675 541.958 L 675 591.796 705.156 610.648 C 721.742 621.017, 741.992 633.635, 750.156 638.689 L 765 647.879 765 598.048 L 765 548.216 734.822 529.358 C 718.224 518.986, 697.974 506.365, 689.822 501.311 L 675 492.121 675 541.958 M 838.750 527.245 L 795 549.210 795 599.605 C 795 627.322, 795.301 650, 795.669 650 C 796.038 650, 816.288 640.052, 840.669 627.893 L 885 605.786 885 555.393 C 885 515.671, 884.735 505.030, 883.750 505.140 C 883.063 505.217, 862.813 515.165, 838.750 527.245 M 315 586.958 L 315 636.796 345.156 655.648 C 361.742 666.017, 381.992 678.635, 390.156 683.689 L 405 692.879 405 643.048 L 405 593.216 374.822 574.358 C 358.224 563.986, 337.974 551.365, 329.822 546.311 L 315 537.121 315 586.958 M 494.506 564.627 C 470.860 576.467, 451.389 586.278, 451.237 586.430 C 450.709 586.958, 540.343 642.498, 541.269 642.216 C 542.279 641.909, 628.345 598.987, 628.739 598.594 C 629.263 598.070, 540.192 543.003, 538.894 543.050 C 538.127 543.077, 518.153 552.787, 494.506 564.627 M 435 661.958 L 435 711.796 465.156 730.648 C 481.742 741.017, 501.992 753.635, 510.156 758.689 L 525 767.879 525 718.048 L 525 668.216 494.822 649.358 C 478.224 638.986, 457.974 626.365, 449.822 621.311 L 435 612.121 435 661.958 M 607.131 643.083 C 587.128 653.027, 571.153 661.526, 571.631 661.970 C 572.109 662.414, 585.100 670.626, 600.500 680.219 C 615.900 689.812, 632.212 699.990, 636.750 702.837 L 645 708.014 645 666.507 C 645 643.678, 644.663 625.001, 644.250 625.002 C 643.837 625.003, 627.134 633.140, 607.131 643.083 M 675 676.958 L 675 726.796 705.156 745.648 C 721.742 756.017, 741.992 768.635, 750.156 773.689 L 765 782.879 765 733.048 L 765 683.216 734.822 664.358 C 718.224 653.986, 697.974 641.365, 689.822 636.311 L 675 627.121 675 676.958 M 838.750 662.245 L 795 684.210 795 734.605 C 795 762.322, 795.301 785, 795.669 785 C 796.038 785, 816.288 775.052, 840.669 762.893 L 885 740.786 885 690.393 C 885 650.671, 884.735 640.030, 883.750 640.140 C 883.063 640.217, 862.813 650.165, 838.750 662.245 M 555 736.958 L 555 786.796 585.156 805.648 C 601.742 816.017, 621.992 828.635, 630.156 833.689 L 645 842.879 645 793.048 L 645 743.216 614.822 724.358 C 598.224 713.986, 577.974 701.365, 569.822 696.311 L 555 687.121 555 736.958 M 675 811.958 L 675 861.796 705.156 880.648 C 721.742 891.017, 741.992 903.635, 750.156 908.689 L 765 917.879 765 868.048 L 765 818.216 734.822 799.358 C 718.224 788.986, 697.974 776.365, 689.822 771.311 L 675 762.121 675 811.958 M 838.750 797.245 L 795 819.210 795 869.605 C 795 897.322, 795.301 920, 795.669 920 C 796.038 920, 816.288 910.052, 840.669 897.893 L 885 875.786 885 825.393 C 885 785.671, 884.735 775.030, 883.750 775.140 C 883.063 775.217, 862.813 785.165, 838.750 797.245" stroke="none" fill="black" fill-rule="evenodd"/>
</svg>